<svg id="Layer_1" data-name="Layer 1" xmlns="http://www.w3.org/2000/svg" viewBox="0 0 1260.73 324.28"><defs><style>.cls-1{fill:#a30000;}.cls-2{fill:#c00;}.cls-3{fill:#820000;}.cls-4{fill:#fff;}</style></defs><title>Logotype_RH_OpenShiftDedicated_wLogo_RGB_White</title><path class="cls-1" d="M222.17,235.27l-56.7,20.64A164.71,164.71,0,0,0,170,282.77l53.86-19.6a105.63,105.63,0,0,1-1.65-27.9" transform="translate(-119.64 -89.86)"/><path class="cls-1" d="M472.73,172.59a161.9,161.9,0,0,0-13.83-23.48l-56.69,20.65a105.38,105.38,0,0,1,16.65,22.43Z" transform="translate(-119.64 -89.86)"/><path class="cls-2" d="M348,156.53a104.66,104.66,0,0,1,30.61,21.81l56.7-20.63A161.3,161.3,0,0,0,372,105c-81-37.77-177.7-2.59-215.49,78.43a161.19,161.19,0,0,0-14.64,81l56.7-20.62A105.06,105.06,0,0,1,348,156.53" transform="translate(-119.64 -89.86)"/><path class="cls-2" d="M173.51,281.5l-53.87,19.61A164.14,164.14,0,0,0,145,356l56.57-20.58a105.84,105.84,0,0,1-28-53.93" transform="translate(-119.64 -89.86)"/><path class="cls-2" d="M408.45,260.11a103.67,103.67,0,0,1-9.52,36.39,105.43,105.43,0,0,1-140,51,104.34,104.34,0,0,1-30.68-21.78l-56.56,20.6A160.63,160.63,0,0,0,234.95,399c81,37.77,177.69,2.59,215.48-78.44a160.4,160.4,0,0,0,14.59-81Z" transform="translate(-119.64 -89.86)"/><path class="cls-2" d="M422.39,190.91l-53.86,19.61a105.76,105.76,0,0,1,13.18,59.3l56.57-20.57a163.47,163.47,0,0,0-15.9-58.35" transform="translate(-119.64 -89.86)"/><path class="cls-3" d="M222,246.67a103.48,103.48,0,0,1,.22-11.39l-56.7,20.64c0.28,3.64.75,7.25,1.3,10.84Z" transform="translate(-119.64 -89.86)"/><path class="cls-3" d="M464.51,157.66c-1.79-2.9-3.63-5.76-5.61-8.55l-56.68,20.65a95.52,95.52,0,0,1,7,8Z" transform="translate(-119.64 -89.86)"/><path class="cls-1" d="M171.7,346.28a161.32,161.32,0,0,0,14.41,17.51l61.59-22.46a104.18,104.18,0,0,1-19.44-15.65ZM465,239.53L408.45,260.1a103.68,103.68,0,0,1-4.79,24.35L465.23,262a160.49,160.49,0,0,0-.22-22.45" transform="translate(-119.64 -89.86)"/><path class="cls-4" d="M578,182.88l-11.92-24.61H558v24.61H538.15v-73h32.63a48.46,48.46,0,0,1,11.63,1.3,24.75,24.75,0,0,1,9,4.12,18.38,18.38,0,0,1,5.79,7.35,26.79,26.79,0,0,1,2,11q0,8.24-3.56,13.45a22.43,22.43,0,0,1-9.62,7.92l14.63,27.84H578Zm-0.95-54.32q-2-2.19-6.86-2.19H558v16H569.9q5,0,7.12-2.09a8.16,8.16,0,0,0,2.1-6A7.92,7.92,0,0,0,577.08,128.55Z" transform="translate(-119.64 -89.86)"/><path class="cls-4" d="M615.93,182.88v-73h55.89v17H636v9.8h21.58v16.68H636v12.51h36.6v17H615.93Z" transform="translate(-119.64 -89.86)"/><path class="cls-4" d="M749.18,163.33a26.31,26.31,0,0,1-7.51,11.37,30.33,30.33,0,0,1-12.35,6.26,67.54,67.54,0,0,1-17,1.93H688.6v-73h25.55a63.23,63.23,0,0,1,15.54,1.77,28.31,28.31,0,0,1,11.83,6A27.57,27.57,0,0,1,749,128.76q2.66,6.88,2.66,17.2A52.22,52.22,0,0,1,749.18,163.33Zm-19.13-25.7a14,14,0,0,0-2.87-5.94,11.68,11.68,0,0,0-5.21-3.39A24.92,24.92,0,0,0,714,127.2h-5v38.37h4.38a28.41,28.41,0,0,0,8-1,12.17,12.17,0,0,0,5.47-3.23A13.08,13.08,0,0,0,730,155.4a37.71,37.71,0,0,0,.94-9.12A37.11,37.11,0,0,0,730.05,137.62Z" transform="translate(-119.64 -89.86)"/><path class="cls-4" d="M847.92,182.88V154.1H825.19v28.78H804.55v-73h20.64v26.59h22.73V109.89h20.64v73H847.92Z" transform="translate(-119.64 -89.86)"/><path class="cls-4" d="M933.63,182.88l-4-12.83h-21.9l-4,12.83H882.12l26.48-73H929l26.48,73h-21.9ZM923.41,149.2q-0.94-3.54-1.67-6.15t-1.31-4.69q-0.57-2.08-1-3.81t-0.73-3.6c-0.21,1.25-.45,2.47-0.73,3.65s-0.61,2.47-1,3.86-0.81,3-1.3,4.69-1,3.75-1.67,6l-1.36,4.8h12.1Z" transform="translate(-119.64 -89.86)"/><path class="cls-4" d="M996.82,127.51v55.37H976.59V127.51H956.15V109.89h61.1v17.62H996.82Z" transform="translate(-119.64 -89.86)"/><path class="cls-4" d="M1044.35,122.52a9,9,0,0,1-5,5,10,10,0,0,1-7.45,0,9,9,0,0,1-5-5,10,10,0,0,1,0-7.45,9,9,0,0,1,5-5,10,10,0,0,1,7.45,0,9,9,0,0,1,5,5A10,10,0,0,1,1044.35,122.52Zm-1.39-6.84a7.72,7.72,0,0,0-1.67-2.52,7.62,7.62,0,0,0-2.52-1.67,8.41,8.41,0,0,0-6.24,0,7.62,7.62,0,0,0-4.17,4.18,8.44,8.44,0,0,0,0,6.24,7.67,7.67,0,0,0,4.17,4.17,8.44,8.44,0,0,0,6.24,0,7.66,7.66,0,0,0,2.52-1.67,7.75,7.75,0,0,0,1.67-2.5A8.44,8.44,0,0,0,1043,115.68Zm-3.62,2.88a3.05,3.05,0,0,1-1.59,1l2.11,4.15h-2.05l-2-4h-2v4h-1.75V113.48h4.5a4.49,4.49,0,0,1,1.29.18,3,3,0,0,1,1.06.56,2.71,2.71,0,0,1,.73,1,3.28,3.28,0,0,1,.28,1.4A3.1,3.1,0,0,1,1039.34,118.56Zm-1.62-3a1.87,1.87,0,0,0-1.18-.36h-2.71v2.92h2.71a1.91,1.91,0,0,0,1.18-.35A1.53,1.53,0,0,0,1037.72,115.54Z" transform="translate(-119.64 -89.86)"/><path class="cls-4" d="M621,281.07A54.53,54.53,0,0,1,611.74,299a43.07,43.07,0,0,1-14.47,11.73,43.32,43.32,0,0,1-37.14.08,41.61,41.61,0,0,1-14.31-11.65,54.26,54.26,0,0,1-9.15-17.83,76.12,76.12,0,0,1-3.21-22.68,75.24,75.24,0,0,1,3.28-22.75A55.41,55.41,0,0,1,546,218a42.26,42.26,0,0,1,14.39-11.73,43.31,43.31,0,0,1,37.15-.08,41.72,41.72,0,0,1,14.31,11.65A55.55,55.55,0,0,1,621,235.64a74.5,74.5,0,0,1,3.28,22.68A75.25,75.25,0,0,1,621,281.07Zm-11.5-41.13a46.51,46.51,0,0,0-7.12-14.39,31.88,31.88,0,0,0-10.63-9.23,28.16,28.16,0,0,0-13.29-3.21,27.36,27.36,0,0,0-13.06,3.21,31.24,31.24,0,0,0-10.4,9.07,45.15,45.15,0,0,0-6.88,14.23,65.07,65.07,0,0,0-2.5,18.69A63.28,63.28,0,0,0,548.24,277a47.45,47.45,0,0,0,7,14.39,31,31,0,0,0,10.56,9.23,28.12,28.12,0,0,0,13.29,3.21,27.81,27.81,0,0,0,13.14-3.21,31,31,0,0,0,10.48-9.07,45.33,45.33,0,0,0,6.88-14.23,65.2,65.2,0,0,0,2.5-18.69A63.27,63.27,0,0,0,609.55,239.94Z" transform="translate(-119.64 -89.86)"/><path class="cls-4" d="M726.22,250.88a29.77,29.77,0,0,1-7.59,10.64A32.05,32.05,0,0,1,706.9,268a49.17,49.17,0,0,1-15,2.19H665.3v43H653.1V203.73h41a46.78,46.78,0,0,1,13.84,2,30.23,30.23,0,0,1,11,6A28,28,0,0,1,726.3,222,40.14,40.14,0,0,1,726.22,250.88Zm-15.41-30.34q-5.95-5.71-17.2-5.71H665.3V259.1H692q24.71,0,24.71-22.21Q716.76,226.25,710.82,220.54Z" transform="translate(-119.64 -89.86)"/><path class="cls-4" d="M754.45,313.21V203.73h66.16v11.11h-54v34.41h31.28v11.11H766.65v41.76H823v11.11h-68.5Z" transform="translate(-119.64 -89.86)"/><path class="cls-4" d="M918.36,313.21L870.63,238.3q-0.94-1.41-2-3.36L866.42,231q-1.09-2-2.11-3.68a25.48,25.48,0,0,1-1.48-2.82v88.68H850.95V203.73h11.89l47.39,76.33q0.94,1.41,2,3.36l2.19,3.91q1.09,2,2.11,3.67a27,27,0,0,1,1.48,2.82V203.73h11.89V313.21H918.36Z" transform="translate(-119.64 -89.86)"/><path class="cls-4" d="M1028.07,296.48a26.64,26.64,0,0,1-7.12,9.7,34.55,34.55,0,0,1-11.42,6.41,46.36,46.36,0,0,1-15.32,2.35,49.48,49.48,0,0,1-20.73-4.3,53.81,53.81,0,0,1-16-10.87l8.13-9.07A55.46,55.46,0,0,0,979,300.23a34.43,34.43,0,0,0,15.64,3.6q10.95,0,17.28-5t6.33-13.76a18.42,18.42,0,0,0-1.25-6.88,15.32,15.32,0,0,0-4.3-5.79,40.82,40.82,0,0,0-8.06-5.24,103.13,103.13,0,0,0-12.51-5.24,108.46,108.46,0,0,1-14.93-6.33,40.39,40.39,0,0,1-9.7-6.88,22.26,22.26,0,0,1-5.32-8.21A30.72,30.72,0,0,1,960.58,230a26.51,26.51,0,0,1,2.5-11.73,26,26,0,0,1,7-8.84,30.24,30.24,0,0,1,10.79-5.55,49.12,49.12,0,0,1,14-1.88q10.95,0,18.69,3.13a58.94,58.94,0,0,1,14.62,8.6l-7.82,9.54a48.26,48.26,0,0,0-12-7.58,36.19,36.19,0,0,0-14.31-2.58,31.41,31.41,0,0,0-9.7,1.33,19.58,19.58,0,0,0-6.65,3.52A13.08,13.08,0,0,0,974,223a16.24,16.24,0,0,0-1.18,6.18,19,19,0,0,0,.94,6.18,13.21,13.21,0,0,0,3.75,5.32,33.66,33.66,0,0,0,7.9,5.08,131,131,0,0,0,13.37,5.48,115,115,0,0,1,15.17,6.57,38,38,0,0,1,9.78,7.2,23.19,23.19,0,0,1,5.24,8.6,34.07,34.07,0,0,1,1.57,10.79A30.17,30.17,0,0,1,1028.07,296.48Z" transform="translate(-119.64 -89.86)"/><path class="cls-4" d="M1127.16,313.21V261.6h-54.43v51.61h-12.2V203.73h12.2v46.77h54.43V203.73h12.2V313.21h-12.2Z" transform="translate(-119.64 -89.86)"/><path class="cls-4" d="M1173.6,313.21V203.73h12.2V313.21h-12.2Z" transform="translate(-119.64 -89.86)"/><path class="cls-4" d="M1232.25,214.83v36.29h30v11.1h-30v51H1220V203.73h64.29v11.11h-52.08Z" transform="translate(-119.64 -89.86)"/><path class="cls-4" d="M1348.14,214.83v98.38h-12.2V214.83h-32.22V203.73h76.64v11.11h-32.22Z" transform="translate(-119.64 -89.86)"/><path class="cls-4" d="M578.59,376.52a22.62,22.62,0,0,1-14.27,13.34,32.71,32.71,0,0,1-10.18,1.56h-14.9v-54.6h14.9a33.71,33.71,0,0,1,10.33,1.56,22.34,22.34,0,0,1,8.46,4.88,23.37,23.37,0,0,1,5.69,8.46,32.73,32.73,0,0,1,2.11,12.4A32.21,32.21,0,0,1,578.59,376.52Zm-7.22-20.21a15.8,15.8,0,0,0-3.25-6.1,14.68,14.68,0,0,0-5.71-4,22.32,22.32,0,0,0-8.33-1.4h-6.73v38.53h6.73a22.35,22.35,0,0,0,8.33-1.4,14.67,14.67,0,0,0,5.71-4,15.79,15.79,0,0,0,3.25-6.1A30.46,30.46,0,0,0,571.37,356.31Z" transform="translate(-119.64 -89.86)"/><path class="cls-4" d="M624.18,372.19q-0.08,1-.16,1.6H597a16.81,16.81,0,0,0,1.25,5.07,11,11,0,0,0,2.34,3.47,9.2,9.2,0,0,0,3.12,2,9.86,9.86,0,0,0,3.59.66,12.59,12.59,0,0,0,4.72-.86,17.49,17.49,0,0,0,4.17-2.42l4.76,5.15a20.18,20.18,0,0,1-6.08,4,20.76,20.76,0,0,1-8,1.4,17,17,0,0,1-6.83-1.4,16,16,0,0,1-5.65-4.13,20,20,0,0,1-3.82-6.71,27.1,27.1,0,0,1-1.4-9,29.07,29.07,0,0,1,1.33-9.2,19.33,19.33,0,0,1,3.67-6.67,15.3,15.3,0,0,1,5.65-4.1,18.52,18.52,0,0,1,7.29-1.4,16.65,16.65,0,0,1,7.6,1.64,15.46,15.46,0,0,1,5.38,4.45,19.26,19.26,0,0,1,3.2,6.55,29,29,0,0,1,1.05,7.88Q624.26,371.21,624.18,372.19Zm-8.77-9a9.45,9.45,0,0,0-1.76-3.28,8.33,8.33,0,0,0-2.92-2.22,10,10,0,0,0-4.25-.82,8.15,8.15,0,0,0-6.44,2.69,13.44,13.44,0,0,0-2.92,7.61h19A17.75,17.75,0,0,0,615.41,363.18Z" transform="translate(-119.64 -89.86)"/><path class="cls-4" d="M658.89,391.42v-4a24.26,24.26,0,0,1-4.84,3.43,12.2,12.2,0,0,1-5.85,1.38A15.37,15.37,0,0,1,642,391a13.13,13.13,0,0,1-5-3.9,19.23,19.23,0,0,1-3.35-6.83,36.31,36.31,0,0,1-1.21-10,28.36,28.36,0,0,1,1.33-9.13,19.27,19.27,0,0,1,3.55-6.47,14,14,0,0,1,5.15-3.82,15.44,15.44,0,0,1,6.12-1.25,12.51,12.51,0,0,1,5.85,1.42,15.71,15.71,0,0,1,4.45,3.31V338.7l8-4.14v56.86h-8Zm0.08-29a14.18,14.18,0,0,0-1.71-1.86,15.11,15.11,0,0,0-2.25-1.71,13.47,13.47,0,0,0-2.68-1.28,8.75,8.75,0,0,0-2.91-.5,7.55,7.55,0,0,0-6.6,3.22q-2.25,3.22-2.25,9.73,0,7.76,2.37,11.25a7.72,7.72,0,0,0,6.8,3.49A9.38,9.38,0,0,0,655,383.2a16.18,16.18,0,0,0,4-3.61V362.45Z" transform="translate(-119.64 -89.86)"/><path class="cls-4" d="M686.78,343.64a5,5,0,0,1-3.63,1.52,5,5,0,0,1-3.71-1.52,5,5,0,0,1-1.52-3.63,5.19,5.19,0,0,1,5.23-5.23,5,5,0,0,1,3.63,1.52A5,5,0,0,1,688.3,340,5,5,0,0,1,686.78,343.64Zm-7.68,47.78v-41h8.11v41h-8.11Z" transform="translate(-119.64 -89.86)"/><path class="cls-4" d="M725.11,362.24a19,19,0,0,0-4.87-3.78,11.13,11.13,0,0,0-5.11-1.21,8.16,8.16,0,0,0-7,3.63q-2.57,3.63-2.57,9.95a23.3,23.3,0,0,0,.62,5.58,13.32,13.32,0,0,0,1.87,4.37,8.92,8.92,0,0,0,3.08,2.85,8.64,8.64,0,0,0,4.25,1,8.79,8.79,0,0,0,4.88-1.29,26.23,26.23,0,0,0,4.41-3.78l5.15,5.07a24.84,24.84,0,0,1-2.57,2.92,17.13,17.13,0,0,1-3.16,2.42,16.36,16.36,0,0,1-3.94,1.68,18.24,18.24,0,0,1-5,.62,16.21,16.21,0,0,1-7-1.52,16.67,16.67,0,0,1-5.62-4.29,20.45,20.45,0,0,1-3.74-6.67,26.31,26.31,0,0,1-1.36-8.74,27.1,27.1,0,0,1,1.4-9,20.51,20.51,0,0,1,3.82-6.75,16.13,16.13,0,0,1,5.69-4.21,17.24,17.24,0,0,1,7-1.44,18,18,0,0,1,8.07,1.75,20.05,20.05,0,0,1,6.43,5.19Z" transform="translate(-119.64 -89.86)"/><path class="cls-4" d="M762.24,391.42v-4.06a18.36,18.36,0,0,1-5,3.51,14.08,14.08,0,0,1-6.24,1.4,17.88,17.88,0,0,1-5-.74,13,13,0,0,1-4.56-2.38,12.3,12.3,0,0,1-3.31-4.29,14.54,14.54,0,0,1-1.29-6.4,13.11,13.11,0,0,1,1.25-5.93,11.52,11.52,0,0,1,3.43-4.13,14.72,14.72,0,0,1,5.15-2.42,25.41,25.41,0,0,1,6.47-.78,22.69,22.69,0,0,1,9.13,1.56v-3a6.58,6.58,0,0,0-2-5.15,8.28,8.28,0,0,0-5.73-1.79,24,24,0,0,0-5.73.62,20.47,20.47,0,0,0-5,2l-3.12-6.08a25.23,25.23,0,0,1,6.32-2.73,28.81,28.81,0,0,1,7.72-.94q6.86,0,11.12,3.39t4.25,10.33v28.08h-7.88Zm0-17.47a14.91,14.91,0,0,0-3.86-1.33,27.21,27.21,0,0,0-5.5-.47,10.31,10.31,0,0,0-6.16,1.64,5.2,5.2,0,0,0-2.26,4.45,6.5,6.5,0,0,0,1.95,4.91q1.95,1.87,5.93,1.87a10.86,10.86,0,0,0,5.89-1.64,14,14,0,0,0,4-3.59v-5.85Z" transform="translate(-119.64 -89.86)"/><path class="cls-4" d="M801.24,390.4a13.65,13.65,0,0,1-3.47,1.36,17.85,17.85,0,0,1-4.41.51,8.74,8.74,0,0,1-6.75-2.65q-2.46-2.65-2.46-8.19V357.8h-5.85v-7.33h5.85v-11.7l7.88-4.21v15.91h10.14v7.33H792V380q0,2.89,1,3.9a4.35,4.35,0,0,0,3.24,1,10.76,10.76,0,0,0,3.2-.51,13.62,13.62,0,0,0,2.73-1.13Z" transform="translate(-119.64 -89.86)"/><path class="cls-4" d="M844.69,372.19q-0.08,1-.16,1.6H817.46a16.81,16.81,0,0,0,1.25,5.07,11,11,0,0,0,2.34,3.47,9.21,9.21,0,0,0,3.12,2,9.86,9.86,0,0,0,3.59.66,12.59,12.59,0,0,0,4.72-.86,17.47,17.47,0,0,0,4.17-2.42l4.76,5.15a20.16,20.16,0,0,1-6.08,4,20.76,20.76,0,0,1-8,1.4,17,17,0,0,1-6.83-1.4,16,16,0,0,1-5.65-4.13A20,20,0,0,1,811,380a27.08,27.08,0,0,1-1.4-9,29.08,29.08,0,0,1,1.33-9.2,19.35,19.35,0,0,1,3.67-6.67,15.3,15.3,0,0,1,5.66-4.1,18.52,18.52,0,0,1,7.29-1.4,16.65,16.65,0,0,1,7.61,1.64,15.46,15.46,0,0,1,5.38,4.45,19.25,19.25,0,0,1,3.2,6.55,28.92,28.92,0,0,1,1.05,7.88C844.76,370.85,844.74,371.54,844.69,372.19Zm-8.78-9a9.45,9.45,0,0,0-1.76-3.28,8.32,8.32,0,0,0-2.92-2.22,10,10,0,0,0-4.25-.82,8.15,8.15,0,0,0-6.44,2.69,13.44,13.44,0,0,0-2.92,7.61h19A17.61,17.61,0,0,0,835.91,363.18Z" transform="translate(-119.64 -89.86)"/><path class="cls-4" d="M879.39,391.42v-4a24.26,24.26,0,0,1-4.84,3.43,12.2,12.2,0,0,1-5.85,1.38,15.37,15.37,0,0,1-6.16-1.25,13.13,13.13,0,0,1-5-3.9,19.23,19.23,0,0,1-3.35-6.83,36.31,36.31,0,0,1-1.21-10,28.36,28.36,0,0,1,1.33-9.13,19.28,19.28,0,0,1,3.55-6.47,14,14,0,0,1,5.15-3.82,15.44,15.44,0,0,1,6.12-1.25,12.51,12.51,0,0,1,5.85,1.42,15.72,15.72,0,0,1,4.45,3.31V338.7l8-4.14v56.86h-8Zm0.08-29a14.16,14.16,0,0,0-1.71-1.86,15.09,15.09,0,0,0-2.25-1.71,13.45,13.45,0,0,0-2.68-1.28,8.75,8.75,0,0,0-2.91-.5,7.55,7.55,0,0,0-6.6,3.22q-2.25,3.22-2.25,9.73,0,7.76,2.37,11.25a7.72,7.72,0,0,0,6.8,3.49,9.38,9.38,0,0,0,5.28-1.59,16.19,16.19,0,0,0,4-3.61V362.45Z" transform="translate(-119.64 -89.86)"/></svg>
