<?xml version="1.0" encoding="UTF-8" standalone="no"?>
<svg
   xmlns:dc="http://purl.org/dc/elements/1.1/"
   xmlns:cc="http://creativecommons.org/ns#"
   xmlns:rdf="http://www.w3.org/1999/02/22-rdf-syntax-ns#"
   xmlns:svg="http://www.w3.org/2000/svg"
   xmlns="http://www.w3.org/2000/svg"
   xmlns:sodipodi="http://sodipodi.sourceforge.net/DTD/sodipodi-0.dtd"
   xmlns:inkscape="http://www.inkscape.org/namespaces/inkscape"
   id="Layer_1"
   data-name="Layer 1"
   viewBox="0 0 38.113 35.000225"
   version="1.1"
   sodipodi:docname="icon.svg"
   width="38.112999"
   height="35.000225"
   inkscape:version="0.92.2 (5c3e80d, 2017-08-06)">
  <metadata
     id="metadata95">
    <rdf:RDF>
      <cc:Work
         rdf:about="">
        <dc:format>image/svg+xml</dc:format>
        <dc:type
           rdf:resource="http://purl.org/dc/dcmitype/StillImage" />
        <dc:title>Logotype_RH_OpenShiftContainerPlatform_wLogo_RGB_White</dc:title>
      </cc:Work>
    </rdf:RDF>
  </metadata>
  <sodipodi:namedview
     pagecolor="#ffffff"
     bordercolor="#666666"
     borderopacity="1"
     objecttolerance="10"
     gridtolerance="10"
     guidetolerance="10"
     inkscape:pageopacity="0"
     inkscape:pageshadow="2"
     inkscape:window-width="1920"
     inkscape:window-height="1016"
     id="namedview93"
     showgrid="false"
     fit-margin-top="0"
     fit-margin-left="0"
     fit-margin-right="0"
     fit-margin-bottom="0"
     inkscape:zoom="0.98293963"
     inkscape:cx="503.91649"
     inkscape:cy="17.49921"
     inkscape:window-x="0"
     inkscape:window-y="27"
     inkscape:window-maximized="1"
     inkscape:current-layer="Layer_1" />
  <defs
     id="defs4">
    <style
       id="style2">.cls-1{fill:#a30000;}.cls-2{fill:#c00;}.cls-3{fill:#820000;}.cls-4{fill:#fff;}</style>
  </defs>
  <title
     id="title6">Logotype_RH_OpenShiftContainerPlatform_wLogo_RGB_White</title>
  <path
     class="cls-1"
     d="m 11.066955,15.694778 -6.120469,2.227737 a 17.781487,17.781487 0 0 0 0.48495,2.899595 l 5.813334,-2.116603 a 11.402378,11.402378 0 0 1 -0.178826,-3.011739"
     id="path8"
     inkscape:connector-curvature="0"
     style="fill:#a30000;stroke-width:0.10103117" />
  <path
     class="cls-1"
     d="m 38.113,8.9287199 a 17.478393,17.478393 0 0 0 -1.49122,-2.534872 l -6.118448,2.228748 a 11.3751,11.3751 0 0 1 1.797345,2.4247481 z"
     id="path10"
     inkscape:connector-curvature="0"
     style="fill:#a30000;stroke-width:0.10103117" />
  <path
     class="cls-2"
     d="m 24.649586,7.1950249 a 11.297306,11.297306 0 0 1 3.303719,2.355037 l 6.120469,-2.222686 A 17.410702,17.410702 0 0 0 27.241035,1.6383109 C 18.494767,-2.4393081 8.059257,1.3584539 3.980628,10.103713 A 17.399589,17.399589 0 0 0 2.400501,18.849981 L 8.520969,16.627296 A 11.339739,11.339739 0 0 1 24.649586,7.1950249"
     id="path12"
     inkscape:connector-curvature="0"
     style="fill:#cc0000;stroke-width:0.10103117" />
  <path
     class="cls-2"
     d="M 5.814344,20.683697 0,22.805352 A 17.717837,17.717837 0 0 0 2.732893,28.73083 L 8.839217,26.508144 A 11.425615,11.425615 0 0 1 5.814344,20.686728"
     id="path14"
     inkscape:connector-curvature="0"
     style="fill:#cc0000;stroke-width:0.10103117" />
  <path
     class="cls-2"
     d="m 31.174179,18.376145 a 11.190213,11.190213 0 0 1 -1.027487,3.928092 11.380151,11.380151 0 0 1 -15.110222,5.501148 11.262955,11.262955 0 0 1 -3.311802,-2.350996 l -6.105314,2.222686 a 17.33897,17.33897 0 0 0 6.826676,5.685024 c 8.746269,4.077618 19.180769,0.278846 23.259397,-8.466412 a 17.313712,17.313712 0 0 0 1.575076,-8.742228 z"
     id="path16"
     inkscape:connector-curvature="0"
     style="fill:#cc0000;stroke-width:0.10103117" />
  <path
     class="cls-2"
     d="m 32.681564,10.9059 -5.813334,2.121655 a 11.416523,11.416523 0 0 1 1.420499,6.392242 l 6.106324,-2.222686 a 17.646105,17.646105 0 0 0 -1.71753,-6.298283"
     id="path18"
     inkscape:connector-curvature="0"
     style="fill:#cc0000;stroke-width:0.10103117" />
  <path
     class="cls-3"
     d="m 11.042707,16.924327 a 11.170007,11.170007 0 0 1 0.02324,-1.229549 l -6.120468,2.227737 c 0.03031,0.393012 0.08183,0.781982 0.140433,1.169941 z"
     id="path20"
     inkscape:connector-curvature="0"
     style="fill:#820000;stroke-width:0.10103117" />
  <path
     class="cls-3"
     d="m 37.227967,7.3162629 c -0.19297,-0.312187 -0.392001,-0.621342 -0.606187,-0.922415 l -6.117438,2.228748 a 10.311242,10.311242 0 0 1 0.752683,0.866847 z"
     id="path22"
     inkscape:connector-curvature="0"
     style="fill:#820000;stroke-width:0.10103117" />
  <path
     class="cls-1"
     d="m 5.619354,27.677075 a 17.413733,17.413733 0 0 0 1.55588,1.890293 l 6.647851,-2.424748 a 11.24477,11.24477 0 0 1 -2.098417,-1.689241 z m 31.660139,-11.517554 -6.105314,2.222686 a 11.191223,11.191223 0 0 1 -0.516269,2.626811 l 6.64583,-2.424749 A 17.323815,17.323815 0 0 0 37.2805,16.159521"
     id="path24"
     inkscape:connector-curvature="0"
     style="fill:#a30000;stroke-width:0.10103117" />
</svg>
